<svg width="99" height="36" viewBox="0 0 99 36" fill="none" xmlns="http://www.w3.org/2000/svg">
<path d="M93.7903 28.6364C92.9873 28.6364 92.3508 28.3328 91.8808 27.7256C91.4303 27.0989 91.2051 26.2274 91.2051 25.111V15.8863C91.2051 14.6524 91.4401 13.7123 91.9101 13.066C92.3802 12.4001 93.0559 12.0672 93.9372 12.0672C94.3289 12.0672 94.6913 12.1553 95.0242 12.3316C95.3572 12.5078 95.6607 12.7625 95.9349 13.0954V7.71924H98.9902V28.4307H97.0513L96.3168 27.1675C96.0231 27.6375 95.6509 27.9998 95.2005 28.2544C94.7696 28.5091 94.2996 28.6364 93.7903 28.6364ZM94.9655 25.963C95.2201 25.963 95.4257 25.8552 95.5824 25.6398C95.7587 25.4048 95.8762 25.0816 95.9349 24.6703V15.8569C95.8762 15.5044 95.7685 15.2302 95.6118 15.0344C95.4551 14.8385 95.2592 14.7406 95.0242 14.7406C94.7696 14.7406 94.5738 14.8581 94.4367 15.0931C94.3191 15.3085 94.2604 15.6415 94.2604 16.092V24.7585C94.2604 25.1698 94.3191 25.4733 94.4367 25.6692C94.5542 25.865 94.7304 25.963 94.9655 25.963Z" fill="#1D1D1B"/>
<path d="M85.6648 28.6366C84.4506 28.6366 83.5105 28.2742 82.8446 27.5496C82.1787 26.8053 81.8457 25.7281 81.8457 24.318V16.3859C81.8457 14.9758 82.1787 13.9084 82.8446 13.1837C83.5105 12.4395 84.4506 12.0674 85.6648 12.0674C86.8987 12.0674 87.8486 12.4395 88.5145 13.1837C89.1804 13.9084 89.5134 14.9758 89.5134 16.3859V21.3508H84.901V24.6999C84.901 25.1504 84.9696 25.4833 85.1067 25.6988C85.2438 25.9142 85.4298 26.0219 85.6648 26.0219C85.9195 26.0219 86.1153 25.9142 86.2524 25.6988C86.3895 25.4833 86.458 25.1504 86.458 24.6999V23.0841H89.5134V24.318C89.5134 25.7281 89.1804 26.8053 88.5145 27.5496C87.8486 28.2742 86.8987 28.6366 85.6648 28.6366ZM84.901 18.9125H86.458V16.004C86.458 15.5536 86.3895 15.2206 86.2524 15.0052C86.1153 14.7897 85.9195 14.682 85.6648 14.682C85.4298 14.682 85.2438 14.7897 85.1067 15.0052C84.9696 15.201 84.901 15.534 84.901 16.004V18.9125Z" fill="#1D1D1B"/>
<path d="M76.7056 28.6366C75.5109 28.6366 74.5904 28.2938 73.9441 27.6083C73.2978 26.9033 72.9746 25.8848 72.9746 24.553V23.0254H76.0299V24.8762C76.0299 25.3658 76.0887 25.7183 76.2062 25.9338C76.3237 26.1492 76.5098 26.2569 76.7644 26.2569C76.9798 26.2569 77.1463 26.1492 77.2638 25.9338C77.3813 25.6988 77.4401 25.3168 77.4401 24.788C77.4401 24.2397 77.4009 23.8186 77.3225 23.5248C77.2442 23.2114 77.0875 22.9079 76.8525 22.6141C76.6371 22.3007 76.2454 21.8502 75.6774 21.2627C74.9723 20.5576 74.4337 19.9505 74.0616 19.4413C73.7091 18.932 73.4642 18.4228 73.3271 17.9136C73.19 17.4044 73.1215 16.7972 73.1215 16.0922C73.1215 14.7799 73.4349 13.7811 74.0616 13.0956C74.7079 12.4101 75.6284 12.0674 76.8231 12.0674C78.0178 12.0674 78.9285 12.4101 79.5553 13.0956C80.2016 13.7811 80.5247 14.7799 80.5247 16.0922V17.3848H77.4694V15.6809C77.4694 15.2304 77.4107 14.917 77.2932 14.7408C77.1952 14.5449 77.0386 14.447 76.8231 14.447C76.6077 14.447 76.4412 14.5547 76.3237 14.7702C76.2258 14.9856 76.1768 15.3381 76.1768 15.8278C76.1768 16.3566 76.216 16.7679 76.2943 17.0616C76.3727 17.3554 76.5293 17.659 76.7644 17.9724C76.9994 18.2661 77.4107 18.7264 77.9982 19.3531C78.6837 20.0582 79.2027 20.6653 79.5553 21.1746C79.9274 21.6642 80.1722 22.1636 80.2897 22.6728C80.4268 23.182 80.4954 23.8088 80.4954 24.553C80.4954 25.8848 80.1624 26.9033 79.4965 27.6083C78.8502 28.2938 77.9199 28.6366 76.7056 28.6366Z" fill="#1D1D1B"/>
<path d="M68.0689 28.6366C66.8742 28.6366 65.9537 28.2938 65.3074 27.6083C64.661 26.9033 64.3379 25.8848 64.3379 24.553V23.0254H67.3932V24.8762C67.3932 25.3658 67.452 25.7183 67.5695 25.9338C67.687 26.1492 67.873 26.2569 68.1276 26.2569C68.3431 26.2569 68.5096 26.1492 68.6271 25.9338C68.7446 25.6988 68.8033 25.3168 68.8033 24.788C68.8033 24.2397 68.7642 23.8186 68.6858 23.5248C68.6075 23.2114 68.4508 22.9079 68.2158 22.6141C68.0003 22.3007 67.6086 21.8502 67.0407 21.2627C66.3356 20.5576 65.797 19.9505 65.4249 19.4413C65.0723 18.932 64.8275 18.4228 64.6904 17.9136C64.5533 17.4044 64.4848 16.7972 64.4848 16.0922C64.4848 14.7799 64.7981 13.7811 65.4249 13.0956C66.0712 12.4101 66.9917 12.0674 68.1864 12.0674C69.3811 12.0674 70.2918 12.4101 70.9186 13.0956C71.5649 13.7811 71.888 14.7799 71.888 16.0922V17.3848H68.8327V15.6809C68.8327 15.2304 68.774 14.917 68.6565 14.7408C68.5585 14.5449 68.4018 14.447 68.1864 14.447C67.971 14.447 67.8045 14.5547 67.687 14.7702C67.5891 14.9856 67.5401 15.3381 67.5401 15.8278C67.5401 16.3566 67.5793 16.7679 67.6576 17.0616C67.7359 17.3554 67.8926 17.659 68.1276 17.9724C68.3627 18.2661 68.774 18.7264 69.3615 19.3531C70.047 20.0582 70.566 20.6653 70.9186 21.1746C71.2907 21.6642 71.5355 22.1636 71.653 22.6728C71.7901 23.182 71.8587 23.8088 71.8587 24.553C71.8587 25.8848 71.5257 26.9033 70.8598 27.6083C70.2135 28.2938 69.2832 28.6366 68.0689 28.6366Z" fill="#1D1D1B"/>
<path d="M59.3269 28.6366C58.1127 28.6366 57.1726 28.2742 56.5067 27.5496C55.8408 26.8053 55.5078 25.7281 55.5078 24.318V16.3859C55.5078 14.9758 55.8408 13.9084 56.5067 13.1837C57.1726 12.4395 58.1127 12.0674 59.3269 12.0674C60.5608 12.0674 61.5107 12.4395 62.1766 13.1837C62.8425 13.9084 63.1755 14.9758 63.1755 16.3859V21.3508H58.5631V24.6999C58.5631 25.1504 58.6317 25.4833 58.7688 25.6988C58.9059 25.9142 59.0919 26.0219 59.3269 26.0219C59.5816 26.0219 59.7774 25.9142 59.9145 25.6988C60.0516 25.4833 60.1202 25.1504 60.1202 24.6999V23.0841H63.1755V24.318C63.1755 25.7281 62.8425 26.8053 62.1766 27.5496C61.5107 28.2742 60.5608 28.6366 59.3269 28.6366ZM58.5631 18.9125H60.1202V16.004C60.1202 15.5536 60.0516 15.2206 59.9145 15.0052C59.7774 14.7897 59.5816 14.682 59.3269 14.682C59.0919 14.682 58.9059 14.7897 58.7688 15.0052C58.6317 15.201 58.5631 15.534 58.5631 16.004V18.9125Z" fill="#1D1D1B"/>
<path d="M50.6953 28.2838V7.71924H53.7506V28.2838H50.6953Z" fill="#1D1D1B"/>
<path d="M40.5137 28.2838V7.71924H44.3034C45.8115 7.71924 46.9377 8.14032 47.6819 8.98249C48.4457 9.80508 48.8276 11.1075 48.8276 12.8898V14.1236C48.8276 15.005 48.6807 15.7688 48.387 16.4151C48.0932 17.0418 47.7015 17.5413 47.2118 17.9134C47.7602 18.2659 48.1813 18.7654 48.4751 19.4117C48.7885 20.058 48.9451 20.8414 48.9451 21.7619V23.1133C48.9451 24.8956 48.5632 26.2078 47.7994 27.0499C47.0552 27.8725 45.929 28.2838 44.4209 28.2838H40.5137ZM44.4209 25.4048C44.8518 25.4048 45.175 25.2481 45.3904 24.9347C45.6059 24.6018 45.7136 24.073 45.7136 23.3483V21.5269C45.7136 20.8022 45.6059 20.2832 45.3904 19.9699C45.175 19.6565 44.8518 19.4998 44.4209 19.4998H43.7452V25.4048H44.4209ZM44.3034 16.3857C44.7343 16.3857 45.0575 16.2291 45.2729 15.9157C45.4883 15.6023 45.5961 15.0833 45.5961 14.3587V12.6547C45.5961 11.9301 45.4883 11.4111 45.2729 11.0977C45.0575 10.7648 44.7343 10.5983 44.3034 10.5983H43.7452V16.3857H44.3034Z" fill="#1D1D1B"/>
<path d="M28.2812 18L29.212 17.0692C31.0869 15.1943 32.1406 12.6501 32.1406 9.99892C32.1406 4.47627 27.6631 0 22.1417 0C19.4905 0 16.9463 1.05367 15.0714 2.92862L0 18L15.0714 33.0714C16.9463 34.9463 19.4893 36 22.1417 36C27.6643 36 32.1406 31.5237 32.1406 26.0011C32.1406 23.3499 31.0869 20.8057 29.212 18.9308L28.2812 18ZM8.72259 22.3996L4.32175 17.9988L8.72259 13.5979V22.3984V22.3996ZM11.7765 10.544L14.8061 7.5144V28.4856L11.7765 25.456V10.5452V10.544ZM22.1417 32.9436C20.5819 32.9436 19.078 32.4168 17.8625 31.4653V4.53468C19.078 3.58321 20.5819 3.05637 22.1417 3.05637C25.9755 3.05637 29.0842 6.16507 29.0842 9.99892C29.0842 11.8398 28.353 13.6065 27.0511 14.9083L23.9594 18L27.0511 21.0917C28.353 22.3935 29.0842 24.159 29.0842 26.0011C29.0842 29.8349 25.9755 32.9436 22.1417 32.9436Z" fill="#1D1D1B"/>
</svg>
