<svg width="36" height="36" viewBox="0 0 36 36" fill="none" xmlns="http://www.w3.org/2000/svg">
<path d="M28.2812 18L29.212 17.0692C31.0869 15.1943 32.1406 12.6501 32.1406 9.99892C32.1406 4.47627 27.6631 0 22.1417 0C19.4905 0 16.9463 1.05367 15.0714 2.92862L0 18L15.0714 33.0714C16.9463 34.9463 19.4893 36 22.1417 36C27.6643 36 32.1406 31.5237 32.1406 26.0011C32.1406 23.3499 31.0869 20.8057 29.212 18.9308L28.2812 18ZM8.72259 22.3996L4.32175 17.9988L8.72259 13.5979V22.3984V22.3996ZM11.7765 10.544L14.8061 7.5144V28.4856L11.7765 25.456V10.5452V10.544ZM22.1417 32.9436C20.5819 32.9436 19.078 32.4168 17.8625 31.4653V4.53468C19.078 3.58321 20.5819 3.05637 22.1417 3.05637C25.9755 3.05637 29.0842 6.16507 29.0842 9.99892C29.0842 11.8398 28.353 13.6065 27.0511 14.9083L23.9594 18L27.0511 21.0917C28.353 22.3935 29.0842 24.159 29.0842 26.0011C29.0842 29.8349 25.9755 32.9436 22.1417 32.9436Z" fill="#1D1D1B"/>
</svg>
