<svg width="100" height="100" viewBox="0 0 100 100" fill="none" xmlns="http://www.w3.org/2000/svg">
<path d="M8.33337 62.5H91.6667V91.6667H8.33337V62.5Z" fill="#FFFACD"/>
<path d="M8.33337 62.5H91.6667V41.6667H8.33337V62.5Z" fill="white"/>
<path d="M8.33337 41.6666H91.6667V91.6666H8.33337V41.6666Z" stroke="#1D1D1B" stroke-width="8.33333"/>
<path d="M16.6667 25C16.6667 26.6415 16.9901 28.267 17.6183 29.7835C18.2464 31.3001 19.1672 32.6781 20.3279 33.8388C21.4886 34.9996 22.8666 35.9203 24.3832 36.5485C25.8998 37.1767 27.5252 37.5 29.1667 37.5C30.8083 37.5 32.4337 37.1767 33.9503 36.5485C35.4669 35.9203 36.8449 34.9996 38.0056 33.8388C39.1663 32.6781 40.0871 31.3001 40.7152 29.7835C41.3434 28.267 41.6667 26.6415 41.6667 25C41.6667 23.3585 41.3434 21.733 40.7152 20.2165C40.0871 18.6999 39.1663 17.3219 38.0056 16.1612C36.8449 15.0004 35.4669 14.0797 33.9503 13.4515C32.4337 12.8233 30.8083 12.5 29.1667 12.5C27.5252 12.5 25.8998 12.8233 24.3832 13.4515C22.8666 14.0797 21.4886 15.0004 20.3279 16.1612C19.1672 17.3219 18.2464 18.6999 17.6183 20.2165C16.9901 21.733 16.6667 23.3585 16.6667 25Z" fill="#FFFACD"/>
<path d="M16.6667 25C16.6667 26.6415 16.9901 28.267 17.6183 29.7835C18.2464 31.3001 19.1672 32.6781 20.3279 33.8388C21.4886 34.9996 22.8666 35.9203 24.3832 36.5485C25.8998 37.1767 27.5252 37.5 29.1667 37.5C30.8083 37.5 32.4337 37.1767 33.9503 36.5485C35.4669 35.9203 36.8449 34.9996 38.0056 33.8388C39.1663 32.6781 40.0871 31.3001 40.7152 29.7835C41.3434 28.267 41.6667 26.6415 41.6667 25C41.6667 23.3585 41.3434 21.733 40.7152 20.2165C40.0871 18.6999 39.1663 17.3219 38.0056 16.1612C36.8449 15.0004 35.4669 14.0797 33.9503 13.4515C32.4337 12.8233 30.8083 12.5 29.1667 12.5C27.5252 12.5 25.8998 12.8233 24.3832 13.4515C22.8666 14.0797 21.4886 15.0004 20.3279 16.1612C19.1672 17.3219 18.2464 18.6999 17.6183 20.2165C16.9901 21.733 16.6667 23.3585 16.6667 25Z" stroke="#1D1D1B" stroke-width="8.33333"/>
<path d="M8.33337 62.5H91.6667" stroke="#1D1D1B" stroke-width="8.33333"/>
<path d="M47.9167 6.25L38.0055 16.1612" stroke="#1D1D1B" stroke-width="8.33333"/>
</svg>
