<svg width="100" height="100" viewBox="0 0 100 100" fill="none" xmlns="http://www.w3.org/2000/svg">
<g clip-path="url(#clip0_1067_12955)">
<path fill-rule="evenodd" clip-rule="evenodd" d="M44.2314 79.1663H4.16602V20.833H95.8327V48.2922C92.736 46.7193 89.2323 45.833 85.5206 45.833H85.2098C81.6331 45.833 78.1448 46.6618 74.9993 48.2105C71.8539 46.6618 68.3652 45.833 64.7885 45.833H64.4781C51.8752 45.833 41.666 56.0538 41.666 68.6526C41.666 72.3459 42.561 75.9476 44.2314 79.1663Z" fill="white"/>
<path d="M4.16602 4.1665H95.8327V20.8332H4.16602V4.1665Z" fill="#FFFACD"/>
<path d="M45.8327 79.1665H4.16602V4.1665H95.8327V49.9998" stroke="#1D1D1B" stroke-width="8.33333"/>
<path d="M95.8327 20.833H4.16602" stroke="#1D1D1B" stroke-width="8.33333"/>
<path d="M72.4531 61.6009L74.9993 64.2543L77.5456 61.6005C79.5485 59.513 82.3169 58.333 85.2098 58.333H85.5206C91.2156 58.333 95.8327 62.9501 95.8323 68.6451C95.8323 71.3801 94.746 74.0026 92.8123 75.9363L74.9993 93.7497L57.1864 75.9368C55.2523 74.0026 54.166 71.3801 54.166 68.6451C54.166 62.9497 58.7827 58.333 64.4781 58.333H64.7885C67.6818 58.333 70.4502 59.513 72.4531 61.6009Z" fill="#FFFACD"/>
<path d="M72.4531 61.6009L74.9993 64.2543L77.5456 61.6005C79.5485 59.513 82.3168 58.333 85.2098 58.333H85.5206C91.2156 58.333 95.8327 62.9501 95.8323 68.6451C95.8323 71.3801 94.746 74.0026 92.8123 75.9363L74.9993 93.7497L57.1864 75.9368C55.2523 74.0026 54.166 71.3801 54.166 68.6451C54.166 62.9497 58.7827 58.333 64.4781 58.333H64.7885C67.6818 58.333 70.4502 59.513 72.4531 61.6009Z" stroke="#1D1D1B" stroke-width="8.33333"/>
</g>
<defs>
<clipPath id="clip0_1067_12955">
<rect width="100" height="100" fill="white"/>
</clipPath>
</defs>
</svg>
