<svg width="41" height="40" viewBox="0 0 41 40" fill="none" xmlns="http://www.w3.org/2000/svg">
<g clip-path="url(#clip0_393_2922)">
<path d="M13.8335 20H27.1668V28.3333H13.8335V20Z" fill="white"/>
<path d="M13.8335 20H27.1668V28.3333H13.8335V20Z" stroke="#1D1D1B" stroke-width="3.33333"/>
<path d="M16.3335 19.9999V15C16.3335 12.6988 18.199 10.8333 20.5002 10.8333C22.8013 10.8333 24.6668 12.6988 24.6668 15V19.9999" stroke="#1D1D1B" stroke-width="3.33333"/>
<path d="M38.8334 20C38.8334 24.8623 36.9019 29.5255 33.4637 32.9636C30.0256 36.4018 25.3624 38.3333 20.5001 38.3333C15.6378 38.3333 10.9746 36.4018 7.53646 32.9636C4.0983 29.5255 2.16675 24.8623 2.16675 20C2.16675 15.1377 4.0983 10.4745 7.53646 7.03634C10.9746 3.59818 15.6378 1.66663 20.5001 1.66663C30.5001 1.66663 34.6667 8.74996 38.8334 13.3333" stroke="#1D1D1B" stroke-width="3.33333"/>
<path d="M38.8334 6.66663V13.3333H32.1667" stroke="#1D1D1B" stroke-width="3.33333"/>
</g>
<defs>
<clipPath id="clip0_393_2922">
<rect width="40" height="40" fill="white" transform="translate(0.5)"/>
</clipPath>
</defs>
</svg>
