<svg width="100" height="101" viewBox="0 0 100 101" fill="none" xmlns="http://www.w3.org/2000/svg">
<path d="M52.7995 95.064C69.7191 95.064 84.4532 85.709 92.1128 71.889L54.8411 50.1474L92.1128 28.4057C84.4532 14.5857 69.7191 5.23071 52.7995 5.23071C27.9924 5.23071 7.88281 25.3407 7.88281 50.1474C7.88281 74.954 27.9924 95.064 52.7995 95.064Z" fill="#FFFACD"/>
<path d="M52.7995 95.064C69.7191 95.064 84.4532 85.709 92.1128 71.889L54.8411 50.1474L92.1128 28.4057C84.4532 14.5857 69.7191 5.23071 52.7995 5.23071C27.9924 5.23071 7.88281 25.3407 7.88281 50.1474C7.88281 74.954 27.9924 95.064 52.7995 95.064Z" stroke="#1D1D1B" stroke-width="8.33333"/>
<path d="M42.5938 27.6892H46.6771V31.7725H42.5938V27.6892Z" stroke="#1D1D1B" stroke-width="8.33333"/>
</svg>
