<svg width="150" height="151" viewBox="0 0 150 151" fill="none" xmlns="http://www.w3.org/2000/svg">
<g clip-path="url(#clip0_1067_2767)">
<path d="M99.1733 41.688L41.5664 99.2955L123.176 142.5L142.378 123.298L99.1733 41.688Z" fill="#FFFACD"/>
<path fill-rule="evenodd" clip-rule="evenodd" d="M112.851 67.5249L99.1733 41.688L82.3008 58.5605V120.86L112.851 137.034V67.5249Z" fill="white"/>
<path d="M99.1733 41.688L41.5664 99.2955L123.176 142.5L142.378 123.298L99.1733 41.688Z" stroke="#1D1D1B" stroke-width="12.5"/>
<path d="M7.62109 28.1099H21.1992" stroke="#1D1D1B" stroke-width="12.5"/>
<path d="M42.5362 7.74023C39.6294 21.5384 42.1344 36.249 50.0525 48.4746" stroke="#1D1D1B" stroke-width="12.5"/>
<path d="M76.4756 39.5686C67.8594 30.9529 66.2437 17.9886 71.6262 7.7417" stroke="#1D1D1B" stroke-width="12.5"/>
<path d="M39.2367 74.4666C30.6805 65.9097 17.8348 64.2572 7.62109 69.5072" stroke="#1D1D1B" stroke-width="12.5"/>
<path d="M82.3008 120.857V58.6611" stroke="#1D1D1B" stroke-width="12.5"/>
<path d="M112.852 67.5913V136.946" stroke="#1D1D1B" stroke-width="12.5"/>
</g>
<defs>
<clipPath id="clip0_1067_2767">
<rect width="150" height="150" fill="white" transform="translate(0 0.119873)"/>
</clipPath>
</defs>
</svg>
