<svg width="100" height="100" viewBox="0 0 100 100" fill="none" xmlns="http://www.w3.org/2000/svg">
<path d="M20.8359 50.0001L62.5027 8.3335H91.6694V37.5001L50.0027 79.1668L20.8359 50.0001Z" fill="#FFFACD"/>
<path d="M20.8359 25L8.33594 37.5L20.8359 50L45.8359 25H20.8359Z" fill="white"/>
<path d="M75 79.1667L62.5 91.6667L50 79.1667L75 54.1667V79.1667Z" fill="white"/>
<path d="M20.8359 50.0001L62.5027 8.3335H91.6694V37.5001L50.0027 79.1668L20.8359 50.0001Z" stroke="#1D1D1B" stroke-width="8.33333"/>
<path d="M20.8359 25L8.33594 37.5L20.8359 50L45.8359 25H20.8359Z" stroke="#1D1D1B" stroke-width="8.33333"/>
<path d="M75 79.1667L62.5 91.6667L50 79.1667L75 54.1667V79.1667Z" stroke="#1D1D1B" stroke-width="8.33333"/>
<path d="M27.0859 72.9172L8.33594 91.6672" stroke="#1D1D1B" stroke-width="8.33333"/>
<path d="M39.5833 85.4167L31.25 93.7501" stroke="#1D1D1B" stroke-width="8.33333"/>
<path d="M14.5833 60.4172L6.25 68.7506" stroke="#1D1D1B" stroke-width="8.33333"/>
<path d="M68.8149 31.1851L60.3516 39.6486" stroke="#1D1D1B" stroke-width="8.33333"/>
</svg>
